<svg width="241" height="241" viewBox="0 0 241 241" fill="none" xmlns="http://www.w3.org/2000/svg">
<circle cx="120.5" cy="120.5" r="120.5" fill="#009688"/>
<path d="M49.9967 126.948C48.2945 127.351 45.9361 126.836 42.9215 125.402C41.0674 125.534 39.4378 125.504 38.0327 125.31C36.679 125.149 35.5083 124.834 34.5205 124.367C33.122 123.646 31.79 122.558 30.5246 121.104C29.2593 119.65 28.4446 118.155 28.0806 116.619C27.8052 115.456 27.8291 114.354 28.1524 113.313C28.8765 110.818 30.1935 109.344 32.1033 108.891C33.5564 108.547 34.6977 109.57 35.5272 111.96C36.3589 114.175 37.0201 115.948 37.5108 117.278C38.0332 118.558 38.4058 119.39 38.6287 119.776C39.7335 121.663 41.2005 123.135 43.0296 124.192C44.8618 124.153 46.7951 123.892 48.8294 123.41C53.3133 122.347 57.4086 120.478 61.1155 117.802C62.6821 116.641 64.1532 115.262 65.5286 113.665C66.904 112.068 67.9592 110.414 68.6944 108.705C69.4295 106.997 69.6347 105.457 69.3101 104.087C68.8478 102.136 66.7657 101.029 63.064 100.766L51.5133 100.872C49.1533 100.905 47.1407 100.461 45.4755 99.54C43.842 98.5677 42.8334 97.272 42.4498 95.6529C41.8595 93.1618 42.8262 90.3019 45.3497 87.0731C46.6224 85.4122 48.2141 83.895 50.1249 82.5214C52.0259 81.1063 54.0847 79.895 56.3015 78.8874C58.5499 77.8285 60.7536 77.0432 62.9124 76.5317C65.9847 75.8037 68.7134 75.6614 71.0986 76.1048C73.5252 76.5383 75.2249 77.6045 76.1974 79.3033C76.4203 79.689 76.5908 80.1309 76.7089 80.6291C77.309 83.1617 76.4608 85.2262 74.1643 86.8227C72.7758 87.8094 71.5418 88.4307 70.4623 88.6864C69.798 88.8438 69.2496 88.8423 68.8169 88.6817C68.7142 88.6183 68.6481 88.5244 68.6186 88.3998C68.5497 88.1092 69.0916 87.8054 70.2442 87.4885C70.9402 87.2797 71.5067 87.0797 71.9437 86.8885C72.3807 86.6972 72.6932 86.5355 72.8811 86.4033C74.262 85.1991 74.7606 83.7874 74.3769 82.1683C74.1802 81.3379 73.7452 80.5202 73.0721 79.715C71.2244 77.6535 67.7264 77.2327 62.5783 78.4525C60.71 78.8952 58.8287 79.5602 56.9342 80.4476C55.03 81.2934 53.2786 82.3223 51.6803 83.5341C50.0722 84.7044 48.783 86.0184 47.813 87.476C46.1263 89.9803 45.4699 92.0214 45.8437 93.599C46.129 94.803 46.966 95.7447 48.3547 96.4242C49.7751 97.0523 51.7434 97.3094 54.2597 97.1955L61.9328 96.8243C64.8839 96.6951 67.3591 96.9636 69.3586 97.6299C71.3483 98.2546 72.5989 99.6465 73.1104 101.805C73.5629 103.715 73.5085 105.614 72.9471 107.5C72.3857 109.387 71.4528 111.187 70.1485 112.899C68.8758 114.56 67.3256 116.067 65.4978 117.421C61.3714 120.548 56.1737 122.853 49.9046 124.339C49.1158 124.526 48.3221 124.692 47.5234 124.837C46.7247 124.983 45.9419 125.102 45.1749 125.197C45.8349 125.391 46.6401 125.551 47.5907 125.676C48.5828 125.792 49.6945 125.858 50.9258 125.873C51.0602 125.885 51.1421 125.953 51.1717 126.078C51.2602 126.451 50.8685 126.741 49.9967 126.948ZM40.6401 124.101C39.224 123.121 38.0472 122.04 37.1096 120.859C35.7044 119 34.4143 116.609 33.2395 113.686C32.386 111.565 31.7724 110.548 31.3987 110.637C31.0666 110.715 30.6689 111.073 30.2058 111.708C29.7841 112.335 29.7651 113.457 30.1487 115.076C30.8964 118.232 32.6666 120.706 35.4594 122.5C36.8558 123.397 38.5827 123.93 40.6401 124.101ZM81.1729 114.167C79.8444 114.482 78.542 114.352 77.2658 113.778C75.9798 113.162 75.1695 112.148 74.8351 110.736C74.1366 107.789 75.1458 103.998 77.8625 99.3639C80.6525 94.6688 83.5006 91.9769 86.4068 91.2883C87.3617 91.0621 88.1937 91.1499 88.9028 91.5519C89.6436 91.9026 90.1026 92.4515 90.2797 93.1988C90.8306 95.5238 89.5241 98.245 86.3603 101.362C83.5526 104.132 81.0279 105.783 78.7859 106.314C78.4538 106.393 78.1533 106.42 77.8846 106.396C77.5274 107.665 77.4964 108.922 77.7915 110.167C78.3031 112.326 79.576 113.165 81.6104 112.683C83.6862 112.191 86.0345 110.165 88.6553 106.607C90.7058 103.972 92.3531 101.302 93.5973 98.5953C93.8529 98.0086 94.126 97.6808 94.4166 97.6119C94.6657 97.5529 94.8198 97.6479 94.8788 97.897C94.9378 98.1461 94.8554 98.5384 94.6315 99.0738C93.833 100.885 92.9219 102.592 91.8983 104.194C90.8748 105.796 89.7228 107.318 88.4424 108.762C85.7965 111.844 83.3733 113.646 81.1729 114.167ZM79.3332 104.738C80.9108 104.364 82.779 103.088 84.9377 100.91C85.6303 100.132 86.2874 99.2969 86.909 98.4042C87.5623 97.4602 88.0495 96.5555 88.3706 95.6901C88.7333 94.8149 88.8457 94.0867 88.708 93.5055C88.5801 92.9658 88.0803 92.7992 87.2084 93.0058C85.9629 93.3009 84.4405 94.6482 82.6413 97.0477C81.7782 98.2168 80.9764 99.4592 80.2358 100.775C79.4951 102.09 78.9146 103.434 78.4941 104.805C78.7628 104.829 79.0425 104.806 79.3332 104.738ZM96.1396 123.249C94.8941 123.545 93.7125 123.276 92.5947 122.445C91.4769 121.614 90.7546 120.601 90.4278 119.407C90.4343 118.879 90.5621 118.586 90.8112 118.527C91.0603 118.468 91.2794 118.745 91.4685 119.358C91.6674 120.012 92.152 120.577 92.9223 121.052C93.6926 121.527 94.3684 121.696 94.9497 121.558C97.3576 120.988 99.5213 118.831 101.441 115.087C102.13 113.74 102.791 112.18 103.423 110.408C104.107 108.668 104.7 106.729 105.202 104.593L106.855 97.6901L103.306 103.53C102.197 105.327 101.187 106.707 100.275 107.668C99.4039 108.62 98.6779 109.165 98.0967 109.302C97.1003 109.538 96.0202 109.422 94.8566 108.952C93.6831 108.441 92.921 107.722 92.5702 106.797C91.3975 103.699 92.511 99.4227 95.9105 93.9693C99.3199 88.5574 102.768 85.4383 106.256 84.612C107.211 84.3857 108.012 84.437 108.66 84.7658C109.01 84.946 109.306 85.2705 109.548 85.7392C109.832 86.198 110.016 86.4176 110.099 86.3979C110.265 86.3586 110.406 86.3034 110.52 86.2324C110.625 86.1198 110.761 86.0439 110.927 86.0045C111.466 85.8766 111.947 85.9602 112.367 86.2551C112.829 86.5402 113.043 86.8844 113.007 87.2876C113.054 87.671 112.717 88.9346 111.997 91.0784C111.545 92.501 111.053 94.218 110.521 96.2295C109.98 98.1995 109.395 100.267 108.768 102.433C108.173 104.547 107.569 106.532 106.956 108.387C106.353 110.284 105.781 111.845 105.238 113.069C102.618 119.04 99.5856 122.433 96.1396 123.249ZM97.1968 108.003C99.6048 107.432 102.26 104.019 105.162 97.7624L109.609 87.106C109.222 86.5838 108.635 86.4161 107.846 86.603C105.272 87.2129 102.308 90.0638 98.954 95.1556C95.4736 100.453 94.2716 104.355 95.348 106.862C95.7917 107.81 96.408 108.19 97.1968 108.003ZM119.938 104.851C118.07 105.293 116.855 104.331 116.295 101.965C116.078 101.051 116.092 99.9081 116.337 98.5347C116.613 97.11 117.103 95.5688 117.807 93.9113C117.807 93.9113 117.517 94.3527 116.936 95.2356C116.356 96.1185 115.717 97.2127 115.018 98.5185C114.891 98.7239 114.703 98.8561 114.454 98.9151C114.288 98.9545 114.18 98.8703 114.131 98.6628C114.082 98.4552 114.185 98.058 114.441 97.4713L120.644 85.3463C121.429 83.845 122.464 82.9419 123.751 82.6369C124.706 82.4106 125.272 82.6712 125.449 83.4185C125.518 83.7091 125.457 84.0085 125.267 84.3166C124.656 85.2508 123.931 86.5407 123.093 88.1862C122.297 89.8219 121.546 91.5564 120.84 93.3898C120.134 95.2233 119.58 96.9551 119.177 98.5852C118.806 100.164 118.723 101.389 118.93 102.261C119.107 103.009 119.445 103.323 119.943 103.205C120.234 103.136 120.666 102.924 121.239 102.569C121.803 102.172 122.52 101.498 123.391 100.547C124.252 99.5533 125.227 98.1164 126.316 96.236C126.506 95.9279 126.993 95.0232 127.777 93.5219C128.562 92.0206 129.592 89.891 130.868 87.1332C133.152 82.3388 134.792 79.8235 135.788 79.5874C137.159 79.2627 138.039 79.6461 138.429 80.7376C138.6 81.0916 138.019 82.5229 136.684 85.0316C134.996 88.457 133.864 90.8958 133.287 92.3479C132.229 95.098 131.857 97.1374 132.172 98.4659C132.388 99.3793 132.808 99.7622 133.431 99.6146C134.053 99.4671 134.773 98.9895 135.59 98.182C136.439 97.3232 137.295 96.3092 138.158 95.14C139.011 93.9294 139.818 92.7078 140.578 91.4753C141.37 90.1914 142.037 89.025 142.578 87.9761C142.758 87.6264 142.972 87.4221 143.222 87.3631C143.471 87.304 143.625 87.3991 143.684 87.6482C143.703 87.7312 143.712 87.8607 143.71 88.0366C143.708 88.2125 143.628 88.4288 143.469 88.6856C142.982 89.5903 142.352 90.7261 141.58 92.093C140.798 93.4184 139.933 94.7635 138.984 96.1282C138.036 97.4929 137.085 98.661 136.131 99.6324C135.178 100.604 134.306 101.183 133.518 101.37C132.563 101.596 131.673 101.544 130.849 101.213C130.016 100.84 129.491 100.197 129.274 99.284C129.058 98.3706 128.987 97.4228 129.061 96.4406C129.125 95.4168 129.162 94.5531 129.171 93.8495C127.76 96.5953 126.45 98.7473 125.241 100.305C124.073 101.854 123.04 102.954 122.142 103.605C121.254 104.298 120.519 104.713 119.938 104.851ZM159.214 94.9523C158.093 95.2179 157.23 95.0935 156.626 94.5789C156.012 94.0229 155.592 93.2674 155.365 92.3125C154.795 89.9045 155.015 87.1337 156.027 84.0001L158.478 76.579C156.146 79.3238 153.959 82.5826 151.915 86.3555C151.364 87.3629 150.744 88.5403 150.055 89.8875C149.407 91.2249 148.695 92.7529 147.919 94.4716C146.886 96.7771 146.225 97.9642 145.934 98.0331C145.353 98.1708 144.817 98.0349 144.325 97.6252C143.823 97.174 143.523 96.7408 143.425 96.3256C143.346 95.9935 143.307 95.3669 143.308 94.4459C143.3 93.4833 143.362 92.6355 143.495 91.9023C143.618 91.1277 143.747 90.3738 143.88 89.6406C144.045 88.8562 144.194 88.0973 144.327 87.3642L141.52 92.1729C141.457 92.2756 141.267 92.5838 140.95 93.0973C140.633 93.6109 140.35 93.8972 140.101 93.9562C139.894 94.0054 139.755 93.8846 139.686 93.594C139.667 93.511 139.684 93.3974 139.737 93.2531C139.739 93.0772 139.82 92.8609 139.978 92.6041C140.453 91.8338 140.939 91.017 141.436 90.1539C141.933 89.2907 142.427 88.3188 142.916 87.2382C143.181 86.6929 143.58 85.8751 144.111 84.7846C144.632 83.6527 145.2 82.4437 145.816 81.1576C146.474 79.8618 147.089 78.6637 147.661 77.5634C147.8 77.2236 147.984 76.9827 148.213 76.8406C148.433 76.657 148.584 76.5554 148.667 76.5357C149.788 76.2701 150.452 76.5732 150.659 77.4451C150.718 77.6942 150.714 77.9581 150.649 78.2367C148.132 84.2702 146.82 88.7248 146.712 91.6004C150.387 85.6433 153.392 81.1165 155.728 78.0198C158.095 74.8719 159.901 73.1503 161.147 72.8552C161.811 72.6978 162.334 72.6835 162.715 72.8124C163.138 72.9315 163.419 73.2816 163.556 73.8629C163.605 74.0705 163.624 74.2414 163.612 74.3758C163.556 74.696 162.981 76.0601 161.885 78.4683C161.206 79.857 160.605 81.1174 160.084 82.2493C159.605 83.3715 159.22 84.3395 158.931 85.1535C158.459 86.4931 158.159 87.7261 158.031 88.8526C157.894 89.9375 157.909 90.8329 158.076 91.5387C158.145 91.8293 158.27 92.1723 158.451 92.5678C158.633 92.9633 158.931 93.1119 159.346 93.0135C160.301 92.7873 161.599 91.6028 163.24 89.46C163.998 88.4034 164.694 87.3616 165.327 86.3345C165.951 85.2659 166.538 84.2279 167.089 83.2205C167.216 83.0151 167.412 82.6397 167.677 82.0945C167.933 81.5078 168.102 81.2046 168.185 81.1849C168.351 81.1455 168.474 81.2919 168.552 81.6241C168.592 81.7901 168.557 82.1053 168.448 82.5697C168.37 82.9827 168.252 83.3176 168.094 83.5744C167.765 84.2223 167.257 85.1319 166.57 86.3032C165.924 87.4647 165.159 88.6765 164.274 89.9385C163.431 91.1907 162.574 92.2926 161.703 93.2444C160.832 94.1961 160.003 94.7654 159.214 94.9523ZM172.667 91.9618C171.422 92.257 170.284 92.1757 169.255 91.718C168.216 91.2188 167.516 90.4857 167.155 89.5188C166.675 88.2296 166.547 86.8568 166.772 85.4004C167.028 83.8926 167.486 82.4028 168.146 80.9311C168.847 79.4494 169.631 78.0361 170.496 76.6911C173.854 71.2475 177.297 68.1076 180.826 67.2714C182.03 66.9861 182.914 67.1057 183.476 67.6301C183.692 67.7983 183.992 68.2315 184.376 68.9296C187.236 60.2717 189.579 55.7263 191.406 55.2935C191.821 55.1951 192.281 55.1956 192.787 55.295C193.293 55.3943 193.585 55.6101 193.664 55.9422C193.713 56.1498 193.673 56.4443 193.545 56.8256C192.663 58.6568 191.781 60.4881 190.9 62.3194C190.009 64.1091 189.143 65.9147 188.303 67.7361C186.878 70.7922 185.77 73.4227 184.977 75.6276C184.184 77.8325 183.675 79.6632 183.45 81.1196C183.382 81.5741 183.339 82.1324 183.321 82.7946C183.334 83.4053 183.414 84.0221 183.562 84.6448C183.749 85.4336 184.077 86.0793 184.547 86.5819C185.017 87.0844 185.688 87.2324 186.559 87.0258C187.93 86.7012 189.454 85.6385 191.132 83.8377C192.81 82.037 194.618 79.3064 196.557 75.6461C196.684 75.4407 196.795 75.2609 196.89 75.1069C197.026 74.943 197.173 74.8206 197.329 74.7397C197.683 74.5681 197.889 74.6069 197.948 74.856C197.978 74.9806 197.907 75.2384 197.737 75.6296C196.814 77.4707 195.741 79.3254 194.517 81.1939C193.294 83.0623 191.97 84.6915 190.545 86.0814C189.152 87.42 187.75 88.2565 186.338 88.5909C184.927 88.9254 183.817 88.6841 183.01 87.8669C182.202 87.0497 181.656 86.0391 181.371 84.8351C181.075 83.5896 181.033 82.3938 181.244 81.2477L177.395 87.4872C176.54 88.8738 175.693 89.9293 174.857 90.6538C174.061 91.3684 173.331 91.8044 172.667 91.9618ZM171.782 90.7246C173.567 90.3016 175.955 87.1487 178.946 81.2659C179.095 80.9676 179.605 79.8821 180.477 78.0093C181.339 76.095 182.547 73.3312 184.103 69.7179C183.694 69.2886 183.137 69.1575 182.431 69.3248C179.857 69.9347 176.893 72.7855 173.539 77.8773C170.366 82.6194 169.084 86.2775 169.694 88.8516C170.048 90.3462 170.744 90.9705 171.782 90.7246ZM200.198 85.241C199.16 85.487 198.238 85.2014 197.43 84.3842C196.613 83.5255 196.096 82.6395 195.88 81.7261C195.289 79.2351 196.269 75.3197 198.819 69.98C201.4 64.5889 203.811 61.6278 206.053 61.0966C208.171 60.5949 209.495 61.465 210.026 63.7069C210.105 64.039 210.147 64.4018 210.152 64.7951C210.2 65.1786 210.231 65.5878 210.246 66.0226C210.359 66.1275 210.581 66.1406 210.913 66.0619C212.034 65.7963 213.269 65.087 214.618 63.9342C214.744 64.6499 213.345 66.0556 210.422 68.1515C211.203 69.4133 210.453 72.3535 208.171 76.9721C205.845 81.7764 203.52 84.454 201.195 85.0049L200.198 85.241ZM200.877 83.1072C202.662 82.6841 204.557 80.5032 206.561 76.5642C208.502 72.728 209.306 70.104 208.971 68.6925C208.218 68.4762 207.162 67.7181 205.801 66.418C204.39 66.7525 202.759 68.9367 200.908 72.9707C199.08 76.9119 198.419 79.7652 198.925 81.5308C199.271 82.808 199.922 83.3334 200.877 83.1072Z" fill="white"/>
<path d="M105.059 175.377C104.312 175.554 103.769 175.485 103.432 175.17C102.429 174.268 101.745 173.049 101.381 171.513C100.535 167.942 101.23 162.362 103.466 154.773C104.922 149.999 107.362 143.458 110.786 135.148C109.05 137.445 107.192 140.056 105.21 142.981C103.228 145.906 101.119 149.125 98.8815 152.636C95.979 157.227 93.6582 161.219 91.9192 164.612C90.2118 167.955 89.0556 170.662 88.4505 172.735C87.8334 174.942 86.7568 176.227 85.2207 176.591C84.5149 176.759 84.103 176.593 83.9849 176.095C83.9456 175.929 83.9685 175.748 84.0537 175.553C84.4939 174.264 85.058 172.574 85.7461 170.482C86.4244 168.348 87.2266 165.812 88.1529 162.874C90.7873 154.006 92.5341 147.037 93.3935 141.966C93.6861 140.055 93.739 138.705 93.5521 137.917C93.3947 137.252 93.0876 136.974 92.6309 137.082C92.0082 137.23 91.1653 138.022 90.1024 139.457C86.4089 144.41 82.5139 151.012 78.4176 159.261C76.6884 162.696 75.2006 165.855 73.9543 168.737C72.7396 171.568 71.7407 174.107 70.9575 176.354C70.3251 178.126 70.0876 179.344 70.245 180.008C70.304 180.257 70.4264 180.404 70.6121 180.448C70.8492 180.523 70.9678 180.561 70.9678 180.561C70.9776 180.602 70.6778 181.002 70.0682 181.76C69.4826 182.25 68.7746 182.593 67.9443 182.79C66.2421 183.193 65.4221 182.971 65.4843 182.123C65.6228 180.117 66.7516 176.276 68.8707 170.6C71.6418 163.234 73.3954 158.237 74.1316 155.607C75.7229 149.924 76.1644 145.588 75.4561 142.599C74.9642 140.523 74.0753 139.177 72.7892 138.561C71.5032 137.945 69.76 137.898 67.5596 138.419C62.7021 139.57 58.1753 142.857 53.9793 148.28C52.1702 150.638 50.5654 153.21 49.165 155.998C47.7548 158.744 46.7428 161.505 46.129 164.281C45.5153 167.057 45.4937 169.649 46.0643 172.057C47.0874 176.375 49.6332 178.052 53.7019 177.088C58.4764 175.957 61.7632 173.358 63.5622 169.292C64.234 167.686 64.4272 166.281 64.142 165.077C63.9747 164.371 63.654 163.943 63.1798 163.792C63.1285 163.761 63.0929 163.703 63.0733 163.62C63.0339 163.454 63.1388 163.342 63.3879 163.283C64.4673 163.027 65.1743 163.605 65.5088 165.016C65.7154 165.888 65.6024 167.077 65.1699 168.583C64.6085 170.47 63.5106 172.221 61.8763 173.836C59.8224 175.901 57.3424 177.278 54.4362 177.966C51.6131 178.635 49.1389 178.279 47.0137 176.897C44.8885 175.515 43.4815 173.371 42.7929 170.465C41.2386 163.905 43.9261 156.187 50.8555 147.31C52.138 145.691 53.7554 144.189 55.7077 142.806C57.6917 141.371 59.7921 140.15 62.0088 139.142C64.2157 138.093 66.2948 137.337 68.2461 136.875C71.0693 136.206 73.3205 136.177 74.9999 136.788C76.7109 137.347 77.8419 138.789 78.3928 141.114C79.0814 144.02 78.8278 148.224 77.632 153.725C77.2487 155.438 76.2313 158.639 74.5798 163.327L77.9289 156.088C78.7591 154.225 79.9355 151.973 81.4583 149.332C82.9811 146.692 84.8087 143.671 86.9411 140.272C87.8696 138.824 89.0036 137.503 90.343 136.309C91.6824 135.115 92.8918 134.39 93.9712 134.134C95.4658 133.78 96.4001 134.392 96.7739 135.969C97.0985 137.339 96.9807 139.34 96.4205 141.972C95.6735 145.482 94.6759 149.599 93.4275 154.323C93.0267 155.778 92.8099 156.991 92.7773 157.963C92.7446 158.936 92.7015 159.494 92.648 159.638C92.7648 159.391 93.0461 158.82 93.4918 157.925C93.9692 156.979 94.6317 155.704 95.4794 154.1C96.5171 152.188 97.7903 150.067 99.2989 147.736C100.798 145.364 102.558 142.798 104.579 140.039L112.595 129.458C113.226 128.607 113.853 128.107 114.476 127.96C115.057 127.822 115.556 128.077 115.973 128.723C116.421 129.319 116.918 130.122 117.464 131.132C117.839 131.789 117.192 133.499 115.523 136.262C111.592 142.806 108.515 149.806 106.291 157.26C104.282 164.138 103.597 168.927 104.236 171.625C104.521 172.829 105.058 173.338 105.847 173.151C106.345 173.033 107.488 172.302 109.274 170.958C110.831 169.756 111.864 169.029 112.374 168.776C112.602 168.81 112.73 168.889 112.76 169.014C112.907 169.637 112.013 170.769 110.079 172.411C108.185 174.044 106.512 175.032 105.059 175.377ZM119.038 168.381C117.17 168.824 115.956 167.862 115.395 165.495C115.178 164.582 115.192 163.439 115.437 162.065C115.713 160.64 116.203 159.099 116.907 157.442C116.907 157.442 116.617 157.883 116.037 158.766C115.456 159.649 114.817 160.743 114.118 162.049C113.991 162.254 113.803 162.387 113.554 162.446C113.388 162.485 113.28 162.401 113.231 162.193C113.182 161.986 113.285 161.589 113.541 161.002L119.744 148.877C120.529 147.376 121.564 146.472 122.851 146.167C123.806 145.941 124.372 146.202 124.549 146.949C124.618 147.24 124.558 147.539 124.367 147.847C123.756 148.781 123.031 150.071 122.193 151.717C121.397 153.352 120.646 155.087 119.94 156.92C119.235 158.754 118.68 160.486 118.277 162.116C117.906 163.695 117.824 164.92 118.03 165.792C118.207 166.539 118.545 166.854 119.043 166.736C119.334 166.667 119.766 166.455 120.339 166.1C120.903 165.703 121.62 165.029 122.491 164.077C123.352 163.084 124.327 161.647 125.416 159.767C125.606 159.458 126.093 158.554 126.878 157.052C127.662 155.551 128.692 153.422 129.968 150.664C132.252 145.869 133.892 143.354 134.889 143.118C136.259 142.793 137.139 143.177 137.529 144.268C137.7 144.622 137.119 146.053 135.784 148.562C134.096 151.988 132.964 154.426 132.387 155.878C131.329 158.629 130.957 160.668 131.272 161.996C131.488 162.91 131.908 163.293 132.531 163.145C133.153 162.998 133.873 162.52 134.69 161.713C135.539 160.854 136.395 159.84 137.258 158.671C138.111 157.46 138.918 156.238 139.679 155.006C140.471 153.722 141.137 152.556 141.678 151.507C141.858 151.157 142.073 150.953 142.322 150.894C142.571 150.835 142.725 150.93 142.784 151.179C142.803 151.262 142.812 151.391 142.81 151.567C142.808 151.743 142.728 151.959 142.569 152.216C142.082 153.121 141.452 154.257 140.68 155.624C139.898 156.949 139.033 158.294 138.084 159.659C137.136 161.023 136.185 162.192 135.231 163.163C134.278 164.134 133.406 164.713 132.618 164.9C131.663 165.127 130.773 165.074 129.95 164.743C129.116 164.371 128.591 163.728 128.374 162.815C128.158 161.901 128.087 160.953 128.161 159.971C128.225 158.947 128.262 158.084 128.271 157.38C126.86 160.126 125.551 162.278 124.341 163.836C123.173 165.384 122.14 166.484 121.242 167.135C120.354 167.828 119.62 168.243 119.038 168.381ZM145.772 162.178C144.443 162.493 143.141 162.363 141.865 161.788C140.579 161.172 139.768 160.159 139.434 158.747C138.736 155.799 139.745 152.008 142.462 147.375C145.251 142.679 148.1 139.988 151.006 139.299C151.961 139.073 152.793 139.161 153.502 139.563C154.243 139.913 154.702 140.462 154.879 141.209C155.43 143.534 154.123 146.256 150.959 149.373C148.152 152.143 145.627 153.794 143.385 154.325C143.053 154.404 142.752 154.431 142.484 154.407C142.126 155.675 142.095 156.932 142.39 158.178C142.902 160.337 144.175 161.175 146.209 160.693C148.285 160.201 150.633 158.176 153.254 154.617C155.305 151.983 156.952 149.312 158.196 146.606C158.452 146.019 158.725 145.691 159.016 145.623C159.265 145.564 159.419 145.659 159.478 145.908C159.537 146.157 159.454 146.549 159.23 147.084C158.432 148.896 157.521 150.603 156.497 152.205C155.474 153.806 154.322 155.329 153.041 156.772C150.395 159.855 147.972 161.657 145.772 162.178ZM143.932 152.748C145.51 152.374 147.378 151.099 149.537 148.921C150.229 148.143 150.886 147.308 151.508 146.415C152.161 145.471 152.648 144.566 152.97 143.701C153.332 142.826 153.445 142.097 153.307 141.516C153.179 140.976 152.679 140.81 151.807 141.016C150.562 141.312 149.039 142.659 147.24 145.058C146.377 146.227 145.575 147.47 144.835 148.785C144.094 150.101 143.514 151.444 143.093 152.816C143.362 152.84 143.642 152.817 143.932 152.748ZM163.161 157.334C161.957 157.62 160.767 157.595 159.592 157.259C158.406 156.882 157.646 155.988 157.312 154.577C156.849 152.625 156.983 150.138 157.714 147.115C158.486 144.082 159.421 140.901 160.517 137.571C163.506 128.532 166.017 123.772 168.051 123.289C168.466 123.191 168.921 123.259 169.415 123.493C169.94 123.675 170.268 123.948 170.398 124.312L167.426 131.199C166.265 133.886 165.231 136.367 164.323 138.643C163.405 140.877 162.63 142.881 161.998 144.653C161.687 145.56 161.338 146.585 160.951 147.729C160.564 148.873 160.25 150.044 160.007 151.241C159.797 152.387 159.819 153.5 160.075 154.58C160.193 155.078 160.446 155.5 160.835 155.846C161.215 156.151 161.778 156.215 162.525 156.038C163.854 155.723 165.43 154.604 167.255 152.681C169.069 150.716 170.735 148.217 172.252 145.183C172.401 144.884 172.575 144.602 172.775 144.335C172.975 144.069 173.158 143.916 173.324 143.876C173.532 143.827 173.665 143.927 173.724 144.176C173.753 144.301 173.667 144.584 173.465 145.027C173.295 145.418 173.151 145.737 173.034 145.984L171.938 148.02C171.324 149.13 170.564 150.362 169.657 151.717C168.792 153.062 167.804 154.261 166.694 155.313C165.626 156.356 164.448 157.029 163.161 157.334ZM178.304 153.746C177.1 154.031 175.91 154.006 174.735 153.671C173.549 153.294 172.789 152.4 172.455 150.988C171.993 149.037 172.127 146.55 172.857 143.527C173.629 140.494 174.564 137.312 175.66 133.983C178.649 124.944 181.16 120.183 183.195 119.701C183.61 119.603 184.064 119.671 184.558 119.904C185.084 120.087 185.411 120.36 185.541 120.724L182.569 127.611C181.408 130.297 180.374 132.779 179.466 135.055C178.548 137.289 177.773 139.292 177.141 141.065C176.83 141.972 176.481 142.997 176.094 144.141C175.707 145.285 175.393 146.456 175.15 147.653C174.94 148.799 174.962 149.912 175.218 150.991C175.336 151.49 175.59 151.912 175.979 152.258C176.358 152.563 176.921 152.627 177.668 152.45C178.997 152.135 180.573 151.016 182.398 149.093C184.212 147.128 185.878 144.629 187.396 141.595C187.544 141.296 187.718 141.014 187.918 140.747C188.118 140.481 188.301 140.328 188.467 140.288C188.675 140.239 188.808 140.339 188.867 140.588C188.897 140.713 188.81 140.996 188.608 141.439C188.438 141.83 188.294 142.149 188.177 142.396L187.081 144.432C186.467 145.542 185.707 146.774 184.8 148.129C183.935 149.474 182.947 150.673 181.837 151.725C180.769 152.767 179.591 153.441 178.304 153.746ZM192.053 151.212C190.724 151.527 189.422 151.397 188.146 150.822C186.86 150.206 186.05 149.192 185.715 147.781C185.017 144.833 186.026 141.042 188.743 136.408C191.533 131.713 194.381 129.021 197.287 128.333C198.242 128.106 199.074 128.194 199.783 128.596C200.524 128.947 200.983 129.496 201.16 130.243C201.711 132.568 200.404 135.289 197.24 138.407C194.433 141.177 191.908 142.827 189.666 143.359C189.334 143.437 189.033 143.465 188.765 143.441C188.407 144.709 188.376 145.966 188.672 147.212C189.183 149.371 190.456 150.209 192.49 149.727C194.566 149.235 196.914 147.21 199.535 143.651C201.586 141.017 203.233 138.346 204.477 135.64C204.733 135.053 205.006 134.725 205.297 134.656C205.546 134.597 205.7 134.692 205.759 134.941C205.818 135.191 205.735 135.583 205.511 136.118C204.713 137.93 203.802 139.636 202.778 141.238C201.755 142.84 200.603 144.363 199.322 145.806C196.676 148.889 194.253 150.69 192.053 151.212ZM190.213 141.782C191.791 141.408 193.659 140.132 195.818 137.955C196.51 137.177 197.167 136.341 197.789 135.449C198.442 134.505 198.929 133.6 199.251 132.735C199.613 131.859 199.726 131.131 199.588 130.55C199.46 130.01 198.96 129.844 198.088 130.05C196.843 130.345 195.32 131.693 193.521 134.092C192.658 135.261 191.856 136.504 191.116 137.819C190.375 139.135 189.795 140.478 189.374 141.849C189.643 141.873 189.923 141.851 190.213 141.782Z" fill="white"/>
</svg>
