<svg width="70" height="70" viewBox="0 0 70 70" fill="none" xmlns="http://www.w3.org/2000/svg">
<rect x="10" y="10" width="50" height="50" rx="5" fill="#A46925"/>
<rect x="64" y="14" width="6" height="42" rx="3" fill="#A46925"/>
<rect x="60" y="19" width="4" height="32" fill="#41290E"/>
<rect x="14" y="6" width="6" height="42" rx="3" transform="rotate(-90 14 6)" fill="#A46925"/>
<rect x="19" y="10" width="4" height="32" transform="rotate(-90 19 10)" fill="#41290E"/>
<rect x="6" y="55" width="6" height="42" rx="3" transform="rotate(180 6 55)" fill="#A46925"/>
<rect x="10" y="50" width="4" height="32" transform="rotate(180 10 50)" fill="#41290E"/>
<rect x="56" y="64" width="6" height="42" rx="3" transform="rotate(90 56 64)" fill="#A46925"/>
<rect x="51" y="60" width="4" height="32" transform="rotate(90 51 60)" fill="#41290E"/>
</svg>
